<?xml version="1.0" encoding="UTF-8"?>
<!DOCTYPE svg PUBLIC "-//W3C//DTD SVG 1.1//EN" "http://www.w3.org/Graphics/SVG/1.1/DTD/svg11.dtd">
<!-- Creator: CorelDRAW 2018 (64 Bit) -->
<svg xmlns="http://www.w3.org/2000/svg" xml:space="preserve" width="11.2888mm" height="11.2888mm" version="1.1" style="shape-rendering:geometricPrecision; text-rendering:geometricPrecision; image-rendering:optimizeQuality; fill-rule:evenodd; clip-rule:evenodd"
viewBox="0 0 1128.88 1128.88"
 xmlns:xlink="http://www.w3.org/1999/xlink">
 <defs>
  <style type="text/css">
   <![CDATA[
    .fil1 {fill:none}
    .fil0 {fill:#373435}
   ]]>
  </style>
   <clipPath id="id0">
    <path d="M564.44 -0.01c311.73,0 564.44,252.72 564.44,564.45 0,311.73 -252.71,564.45 -564.44,564.45 -311.73,0 -564.44,-252.72 -564.44,-564.45 0,-311.73 252.71,-564.45 564.44,-564.45z"/>
   </clipPath>
    <clipPath id="id1">
     <path d="M564.44 -0.01c311.73,0 564.44,252.72 564.44,564.45 0,311.73 -252.71,564.45 -564.44,564.45 -311.73,0 -564.44,-252.72 -564.44,-564.45 0,-311.73 252.71,-564.45 564.44,-564.45z"/>
    </clipPath>
    <clipPath id="id2">
     <path d="M564.44 -0.01c311.73,0 564.44,252.72 564.44,564.45 0,311.73 -252.71,564.45 -564.44,564.45 -311.73,0 -564.44,-252.72 -564.44,-564.45 0,-311.73 252.71,-564.45 564.44,-564.45z"/>
    </clipPath>
 </defs>
 <g id="Capa_x0020_1">
  <metadata id="CorelCorpID_0Corel-Layer"/>
  <path class="fil0" d="M564.44 -0.01c311.73,0 564.44,252.72 564.44,564.45 0,311.73 -252.71,564.45 -564.44,564.45 -311.73,0 -564.44,-252.72 -564.44,-564.45 0,-311.73 252.71,-564.45 564.44,-564.45z"/>
  <g style="clip-path:url(#id0)">
   <g id="_2506070847824">
   </g>
   <g style="clip-path:url(#id1)">
    <image id="torr21.png" x="-194.04" y="-194.03" width="1516.95" height="1516.95" xlink:href="Tor21_2RT 32x32_Images\Tor21_2RT 32x32_ImgID1.png"/>
   </g>
   <g style="clip-path:url(#id2)">
   </g>
  </g>
  <path class="fil1" d="M564.44 -0.01c311.73,0 564.44,252.72 564.44,564.45 0,311.73 -252.71,564.45 -564.44,564.45 -311.73,0 -564.44,-252.72 -564.44,-564.45 0,-311.73 252.71,-564.45 564.44,-564.45z"/>
 </g>
</svg>
